<svg width="38" height="38" viewBox="0 0 38 38" fill="none" xmlns="http://www.w3.org/2000/svg">
<g id="Icon" clip-path="url(#clip0_15_254)">
<path id="Rectangle" d="M0 4C0 1.79086 1.79086 0 4 0H38V38H4C1.79086 38 0 36.2091 0 34V4Z" fill="#E9ECEF"/>
<path id="Outline" d="M0 4C0 1.79086 1.79086 0 4 0H38V38H4C1.79086 38 0 36.2091 0 34V4Z" stroke="#CED4DA"/>
<path id="person" d="M19 19C20.0609 19 21.0783 18.5786 21.8284 17.8284C22.5786 17.0783 23 16.0609 23 15C23 13.9391 22.5786 12.9217 21.8284 12.1716C21.0783 11.4214 20.0609 11 19 11C17.9391 11 16.9217 11.4214 16.1716 12.1716C15.4214 12.9217 15 13.9391 15 15C15 16.0609 15.4214 17.0783 16.1716 17.8284C16.9217 18.5786 17.9391 19 19 19ZM21.6667 15C21.6667 15.7072 21.3857 16.3855 20.8856 16.8856C20.3855 17.3857 19.7072 17.6667 19 17.6667C18.2928 17.6667 17.6145 17.3857 17.1144 16.8856C16.6143 16.3855 16.3333 15.7072 16.3333 15C16.3333 14.2928 16.6143 13.6145 17.1144 13.1144C17.6145 12.6143 18.2928 12.3333 19 12.3333C19.7072 12.3333 20.3855 12.6143 20.8856 13.1144C21.3857 13.6145 21.6667 14.2928 21.6667 15ZM27 25.6667C27 27 25.6667 27 25.6667 27H12.3333C12.3333 27 11 27 11 25.6667C11 24.3333 12.3333 20.3333 19 20.3333C25.6667 20.3333 27 24.3333 27 25.6667ZM25.6667 25.6613C25.6653 25.3333 25.4613 24.3467 24.5573 23.4427C23.688 22.5733 22.052 21.6667 19 21.6667C15.9467 21.6667 14.312 22.5733 13.4427 23.4427C12.5387 24.3467 12.336 25.3333 12.3333 25.6613H25.6667Z" fill="#6C757D"/>
</g>
<defs>
<clipPath id="clip0_15_254">
<rect width="38" height="38" fill="white"/>
</clipPath>
</defs>
</svg>
