<svg width="7" height="14" viewBox="0 0 7 14" fill="none" xmlns="http://www.w3.org/2000/svg">
<g id="Icon">
<path id="Path" fill-rule="evenodd" clip-rule="evenodd" d="M0.145063 13.3539C0.051021 13.2601 -0.00183105 13.1327 -0.00183105 12.9999C-0.00183105 12.867 0.051021 12.7397 0.145063 12.6459L5.79206 6.99987L0.145063 1.35387C0.0185907 1.2274 -0.0308022 1.04306 0.0154897 0.8703C0.0617817 0.697536 0.196726 0.562593 0.36949 0.5163C0.542254 0.470008 0.726591 0.519401 0.853063 0.645873L6.85306 6.64587C6.9471 6.73968 6.99996 6.86705 6.99996 6.99987C6.99996 7.1327 6.9471 7.26007 6.85306 7.35387L0.853063 13.3539C0.759259 13.4479 0.63189 13.5008 0.499063 13.5008C0.366235 13.5008 0.238867 13.4479 0.145063 13.3539Z" fill="white"/>
</g>
</svg>
