<svg width="15" height="14" viewBox="0 0 15 14" fill="none" xmlns="http://www.w3.org/2000/svg">
<g id="Icons">
<g id="Vector">
<path fill-rule="evenodd" clip-rule="evenodd" d="M1.5 12.3964V5.89644H2.5V12.3964C2.5 12.6726 2.72386 12.8964 3 12.8964H12C12.2761 12.8964 12.5 12.6726 12.5 12.3964V5.89644H13.5V12.3964C13.5 13.2249 12.8284 13.8964 12 13.8964H3C2.17157 13.8964 1.5 13.2249 1.5 12.3964Z" fill="white"/>
<path fill-rule="evenodd" clip-rule="evenodd" d="M12.5 1.39644V4.89644L10.5 2.89644V1.39644C10.5 1.1203 10.7239 0.89644 11 0.89644H12C12.2761 0.89644 12.5 1.1203 12.5 1.39644Z" fill="white"/>
<path fill-rule="evenodd" clip-rule="evenodd" d="M6.79289 0.39644C7.18342 0.00591397 7.81658 0.00591606 8.20711 0.39644L14.8536 7.04289C15.0488 7.23815 15.0488 7.55473 14.8536 7.74999C14.6583 7.94526 14.3417 7.94526 14.1464 7.74999L7.5 1.10355L0.853553 7.74999C0.658291 7.94526 0.341709 7.94526 0.146447 7.74999C-0.0488155 7.55473 -0.0488155 7.23815 0.146447 7.04289L6.79289 0.39644Z" fill="white"/>
</g>
</g>
</svg>
